<svg xmlns="http://www.w3.org/2000/svg" xmlns:xlink="http://www.w3.org/1999/xlink" version="1.1" width="256" height="256" viewBox="0 0 256 256" xml:space="preserve">

<defs>
</defs>
<g style="stroke: none; stroke-width: 0; stroke-dasharray: none; stroke-linecap: butt; stroke-linejoin: miter; stroke-miterlimit: 10; fill: none; fill-rule: nonzero; opacity: 1;" transform="translate(1.4065934065934016 1.4065934065934016) scale(2.81 2.81)" >
	<path d="M 16.619 19.918 c 1.51 -3.967 5.484 -5.919 8.72 -6.432 c -4.741 2.449 -7.107 5.053 -8.782 10.353 l 0.966 0.239 c 0.27 -1.031 0.644 -1.962 1.097 -2.82 c 3.306 1.099 6.321 0.766 8.775 -1.854 c 3.05 -3.787 2.036 -7.896 0.755 -12.027 c -1.219 3.977 -8.017 3.376 -10.567 8.035 c -0.538 0.983 -0.99 1.951 -1.351 2.934" style="stroke: none; stroke-width: 1; stroke-dasharray: none; stroke-linecap: butt; stroke-linejoin: miter; stroke-miterlimit: 10; fill: rgb(127,209,97); fill-rule: nonzero; opacity: 1;" transform=" matrix(2.81 0 0 2.81 1.4065934065934016 1.4065934065934016) " stroke-linecap="round" />
	<path d="M 17.816 15.539 c 3.276 -4.131 9.415 -3.966 10.335 -8.161 c -1.418 3.081 -6.127 1.916 -9.352 4.55 c -1.869 1.6 -3.017 3.584 -2.567 6.419 C 16.593 17.364 17.14 16.433 17.816 15.539 z" style="stroke: none; stroke-width: 1; stroke-dasharray: none; stroke-linecap: butt; stroke-linejoin: miter; stroke-miterlimit: 10; fill: rgb(119,186,88); fill-rule: nonzero; opacity: 1;" transform=" matrix(2.81 0 0 2.81 1.4065934065934016 1.4065934065934016) " stroke-linecap="round" />
	<path d="M 14.408 19.918 c -1.51 -3.967 -5.484 -5.919 -8.72 -6.432 c 4.741 2.449 7.107 5.053 8.782 10.353 l -0.966 0.239 c -0.27 -1.031 -0.644 -1.962 -1.097 -2.82 c -3.306 1.099 -6.321 0.766 -8.775 -1.854 c -3.05 -3.787 -2.036 -7.896 -0.755 -12.027 c 1.219 3.977 8.017 3.376 10.567 8.035 c 0.538 0.983 0.99 1.951 1.351 2.934" style="stroke: none; stroke-width: 1; stroke-dasharray: none; stroke-linecap: butt; stroke-linejoin: miter; stroke-miterlimit: 10; fill: rgb(127,209,97); fill-rule: nonzero; opacity: 1;" transform=" matrix(2.81 0 0 2.81 1.4065934065934016 1.4065934065934016) " stroke-linecap="round" />
	<path d="M 13.211 15.539 c -3.276 -4.131 -9.415 -3.966 -10.335 -8.161 c 1.418 3.081 6.127 1.916 9.352 4.55 c 1.869 1.6 3.017 3.584 2.567 6.419 C 14.434 17.364 13.888 16.433 13.211 15.539 z" style="stroke: none; stroke-width: 1; stroke-dasharray: none; stroke-linecap: butt; stroke-linejoin: miter; stroke-miterlimit: 10; fill: rgb(119,186,88); fill-rule: nonzero; opacity: 1;" transform=" matrix(2.81 0 0 2.81 1.4065934065934016 1.4065934065934016) " stroke-linecap="round" />
	<path d="M 10.478 9.541 c 0.634 0.242 1.265 0.545 1.871 0.945 c 0.514 -4.291 3.601 -7.844 1.627 -10.987 c 1.148 3.192 -3.027 5.661 -3.482 9.8 C 10.487 9.38 10.484 9.461 10.478 9.541 z" style="stroke: none; stroke-width: 1; stroke-dasharray: none; stroke-linecap: butt; stroke-linejoin: miter; stroke-miterlimit: 10; fill: rgb(119,186,88); fill-rule: nonzero; opacity: 1;" transform=" matrix(2.81 0 0 2.81 1.4065934065934016 1.4065934065934016) " stroke-linecap="round" />
	<path d="M 13.976 -0.501 c 1.602 3.084 -1.81 6.619 -2.134 10.679 c 0.399 0.226 0.79 0.485 1.167 0.794 c 0.304 0.26 0.585 0.525 0.844 0.796 c 0.255 -2.269 1.242 -4.377 2.398 -5.941 c -0.979 2.98 -1.329 5.425 -0.944 7.94 c 0.073 0.14 0.141 0.282 0.205 0.425 c 0.508 -1.152 1.33 -2.215 2.483 -3.201 c 1.221 -0.997 2.567 -1.513 3.865 -1.875 c 0.005 -0.167 0.01 -0.335 0.006 -0.508 C 21.388 3.769 17.785 1.548 13.976 -0.501 z" style="stroke: none; stroke-width: 1; stroke-dasharray: none; stroke-linecap: butt; stroke-linejoin: miter; stroke-miterlimit: 10; fill: rgb(127,209,97); fill-rule: nonzero; opacity: 1;" transform=" matrix(2.81 0 0 2.81 1.4065934065934016 1.4065934065934016) " stroke-linecap="round" />
	<path d="M 74.889 90 C 71.653 76.476 59.516 66.409 45 66.409 S 18.347 76.476 15.111 90 H 74.889 z" style="stroke: none; stroke-width: 1; stroke-dasharray: none; stroke-linecap: butt; stroke-linejoin: miter; stroke-miterlimit: 10; fill: rgb(219,135,89); fill-rule: nonzero; opacity: 1;" transform=" matrix(1 0 0 1 0 0) " stroke-linecap="round" />
	<path d="M 23.89 84.148 c 1.407 -5.881 4.499 -11.107 8.736 -15.136 C 23.939 72.843 17.365 80.58 15.111 90 h 59.778 c -0.488 -2.037 -1.18 -3.995 -2.05 -5.852 H 23.89 z" style="stroke: none; stroke-width: 1; stroke-dasharray: none; stroke-linecap: butt; stroke-linejoin: miter; stroke-miterlimit: 10; fill: rgb(201,125,83); fill-rule: nonzero; opacity: 1;" transform=" matrix(1 0 0 1 0 0) " stroke-linecap="round" />
</g>
</svg>